<svg width="91" height="27" viewBox="0 0 91 27" fill="none" xmlns="http://www.w3.org/2000/svg">
<path d="M85.484 16.6815C85.9135 16.3624 86.3431 16.1236 86.1999 16.2566C87.0337 15.5776 87.1191 15.6111 87.122 15.4483C87.6393 14.9996 88.3265 14.6178 87.7208 15.1158L89.3028 13.8868L88.2983 14.5798C88.4417 14.3679 89.4248 13.7615 89.8823 13.3881L90.1468 13.6327L89.8476 13.4922L89.7925 13.4665L89.792 13.466L89.797 13.4587L89.8084 13.4425C89.8257 13.4197 89.839 13.3954 89.848 13.3702C89.857 13.3425 89.857 13.3212 89.8552 13.2983C89.8389 13.3265 89.8273 13.3473 89.8092 13.3712L89.7809 13.4061L89.7596 13.4316L89.7502 13.4427L89.7471 13.4459L89.7474 13.4458L90.1466 13.6327L89.8439 13.3609L88.3295 14.4545L88.3879 14.3685C88.0144 14.6832 87.2102 15.238 86.9215 15.4256C86.9496 15.3834 86.897 15.3854 87.2091 15.1581C85.0446 16.6949 86.7916 15.6904 85.0327 16.992C85.1782 16.8849 85.3287 16.7814 85.484 16.6815ZM83.4228 17.8278L82.7875 18.4494L81.4948 19.3301C81.5207 19.3693 80.634 20.0499 81.2921 19.6304C81.4074 19.5388 81.636 19.3583 81.8341 19.222C81.7807 19.3852 80.1988 20.453 80.6582 20.2511C81.6336 19.5209 81.806 19.4251 82.3495 18.9352C83.2729 18.2867 83.9598 17.8246 84.419 17.5422C84.6774 17.3384 84.662 17.2728 84.9963 17.0185L84.7653 17.1884L84.5966 17.121C84.3364 17.3465 84.0511 17.5319 83.7344 17.762L85.0586 16.596C84.4591 16.8487 83.0794 17.9381 82.448 18.3163C83.2788 17.8811 81.9302 18.7651 83.4228 17.8278ZM27.6306 12.0889C28.0749 12.0865 28.2059 12.0551 28.27 12.0393L23.267 12.0418C23.4237 12.0767 24.8648 12.1199 23.9018 12.1408C24.3313 12.1794 25.6393 12.1464 25.8289 12.0992L25.4663 12.1524C26.6189 12.0842 27.4063 12.2182 26.6547 12.2585L26.7519 12.2579L29.9446 11.9954C28.7725 11.98 29.0419 12.0858 27.6306 12.0889ZM86.2311 9.44596C85.7608 9.12695 85.6919 9.09549 85.7311 9.14191C85.9048 9.2525 86.0722 9.35609 86.2311 9.44596ZM30.691 11.9337L31.691 11.8516C31.2905 11.8738 30.9387 11.9034 30.691 11.9337ZM23.7628 13.183C23.7608 13.1874 23.7499 13.1913 23.7763 13.197L24.2254 13.155H24.2139L23.7628 13.183ZM53.3919 11.6253L53.7201 11.6196C53.6006 11.62 53.4925 11.6224 53.3919 11.6253ZM10.2095 13.6523L12.4339 13.5734C12.1375 13.6106 13.2104 13.5995 12.7418 13.6431C12.9114 13.6371 13.7062 13.6223 13.4893 13.6029L13.0356 13.6054C14.2085 13.4966 13.4983 13.4547 15.4428 13.3718C14.2353 13.307 13.7059 13.3663 13.0665 13.4159L12.4844 13.4308L10.6349 13.5833L10.2095 13.6523ZM78.4311 5.88448L78.4566 5.89087C78.4379 5.88168 78.4322 5.88168 78.4311 5.88448ZM78.5597 5.91533L78.4564 5.89087C78.5584 5.93885 78.8986 6.15848 78.5597 5.91533ZM30.3235 12.0043C30.354 11.984 30.4822 11.9593 30.691 11.9337L29.9448 11.9954L30.3235 12.0043Z" fill="black" fill-opacity="0.21"/>
<path d="M28.6259 12.2423L26.7519 12.2579L26.061 12.3144C26.7785 12.2929 27.6171 12.2783 28.6259 12.2423ZM50.4321 11.5611C54.3137 11.5445 49.4787 11.6893 51.2622 11.7202C52.3399 11.7051 52.72 11.6443 53.3918 11.6251C50.3134 11.6772 53.8092 11.4247 50.7043 11.4569C51.1459 11.3468 52.9433 11.3368 53.9968 11.3667C55.1893 11.4728 52.9549 11.4445 52.6847 11.5485C53.9306 11.5312 53.7111 11.5119 54.2398 11.4527C56.1962 11.4773 58.2874 11.3223 59.4557 11.4694C60.8716 11.446 60.7786 11.3952 61.593 11.3393C61.7551 11.2258 59.4869 11.2797 58.9621 11.1902C59.0709 11.1999 59.2831 11.2191 59.2215 11.235L57.9971 11.2111C59.1594 11.2507 57.8359 11.3247 57.2146 11.3336C56.7628 11.3359 55.8647 11.3409 55.9883 11.3096L56.6723 11.2851C55.7919 11.2493 54.7297 11.368 53.7998 11.3064C53.751 11.2809 54.1029 11.2689 54.1563 11.2532C53.1144 11.3307 52.1095 11.3262 50.5673 11.3811L51.4614 11.2684C50.2277 11.3931 47.4343 11.3577 45.4982 11.2918C45.7129 11.311 46.0999 11.3242 45.8676 11.346C44.7304 11.373 43.8716 11.2957 44.3983 11.2364C43.2875 11.3298 40.1657 11.1577 38.6517 11.279L31.691 11.8515C31.9664 11.836 32.2422 11.8256 32.5183 11.8205C33.1509 11.9194 33.492 11.9074 32.3832 12.0006C33.4717 11.9482 33.0557 11.8688 34.6913 11.8647C34.0497 11.9144 33.8876 12.028 35.4542 12.0397C39.3709 11.9409 41.9664 11.6597 45.6244 11.5161C45.7595 11.5923 48.6312 11.5709 50.0272 11.5889C49.4944 11.6706 48.4586 11.694 47.3835 11.7105L50.081 11.7214L50.4321 11.5611Z" fill="black" fill-opacity="0.21"/>
<path d="M41.3377 11.8172C41.4358 11.824 41.5369 11.8278 41.6411 11.8314C41.5855 11.8251 41.4951 11.8203 41.3377 11.8172ZM47.056 11.7083C47.0422 11.7113 47.0473 11.7135 47.0422 11.7166L47.3833 11.7106L47.056 11.7083ZM31.2412 12.1764L30.6044 12.2261L31.1 12.2061C31.2648 12.196 31.3432 12.1856 31.2412 12.1764ZM30.458 12.0423L30.5822 12.011L30.3235 12.0043C30.2965 12.0213 30.3255 12.0353 30.458 12.0423ZM65.2645 12.2501L65.6365 12.2336C65.4122 12.235 65.3157 12.2417 65.2645 12.2501Z" fill="black" fill-opacity="0.21"/>
<path d="M54.7559 11.6906C53.4062 11.6979 54.5946 11.8043 52.6849 11.8047L53.2454 11.8116C51.8753 11.8603 49.4671 11.8379 47.839 11.8418C48.0227 11.7965 46.852 11.7867 47.0422 11.7164C45.9295 11.7329 44.8274 11.7487 44.2543 11.8211C43.5647 11.7974 42.5176 11.8613 41.6411 11.8312C42.0111 11.8737 40.3932 11.9751 42.5263 11.9231C42.3541 11.9289 42.4622 11.9387 42.292 11.9446C43.6663 12.004 44.2172 11.9033 45.401 11.9019C46.1086 11.9438 44.2436 11.9697 44.9113 11.9865C46.3895 11.9474 49.5497 12.0371 49.4517 11.879C50.5276 11.868 50.676 11.9027 50.9968 11.9317C52.6986 11.7633 57.312 12.004 57.2963 11.7887C56.675 11.7973 55.6629 11.7926 54.7511 11.8387L54.7559 11.6906ZM16.4739 11.5416L17.0383 11.401C20.2525 11.3673 21.4148 11.4069 24.2252 11.4013C24.4398 11.4206 24.0988 11.4328 23.926 11.439C25.9017 11.4228 28.8582 11.4522 30.2963 11.3876C30.925 11.3887 32.5754 11.4334 31.9506 11.4748C32.2566 11.4624 32.6063 11.4504 32.9581 11.4549C33.0514 11.5053 32.1707 11.4694 32.1504 11.5106C32.4294 11.5141 32.5379 11.5239 32.6022 11.5078C32.133 11.5513 33.0891 11.6795 30.9006 11.6762C30.0531 11.558 32.4185 11.6625 31.9181 11.5321C31.1922 11.5312 31.2765 11.5817 31.2144 11.5976C30.2893 11.5946 30.3137 11.5619 30.363 11.5321C30.0086 11.5726 28.8451 11.5163 28.3554 11.5776C26.5566 11.5877 28.4535 11.4798 27.2784 11.4812L26.6011 11.6133L24.6475 11.5884C21.8195 11.6348 25.052 11.8166 21.8195 11.8912C22.2442 11.8223 20.9477 11.7064 19.4432 11.679C20.3432 11.6742 22.0071 11.5881 23.1693 11.6273C21.5311 11.5239 25.424 11.6149 24.5739 11.4965C23.7643 11.5524 22.4144 11.56 21.3616 11.5298L21.7066 11.5177C20.5869 11.5036 19.7395 11.6418 18.1944 11.589C17.4266 11.5932 17.5705 11.556 17.7056 11.5251C17.0566 11.5449 16.4758 11.5708 16.4739 11.5416ZM18.1465 11.5139L19.1736 11.527C18.9297 11.5052 18.5468 11.506 18.1465 11.5139ZM73.2823 25.1002L73.5135 24.95C73.459 24.9801 73.3727 25.038 73.2823 25.1002ZM22.0923 13.3685L22.6873 13.3729C22.489 13.3691 22.2906 13.3677 22.0923 13.3685ZM35.4444 12.9323L36.3135 12.9015C36.0234 12.903 35.7334 12.9133 35.4444 12.9323ZM73.8753 24.1933L73.8969 24.1793L73.9869 24.105L73.8753 24.1933ZM62.2239 13.2414C62.3562 13.2524 62.5048 13.2626 62.7081 13.2705C62.6839 13.2573 62.5031 13.2479 62.2239 13.2414ZM35.2843 12.9381L35.337 12.9406L35.4444 12.9323L35.2843 12.9381ZM16.2108 12.9834L15.8299 12.9965C16.0097 12.994 16.1197 12.989 16.2108 12.9834ZM17.0494 13.3577C16.9123 13.361 16.7814 13.3651 16.6794 13.3708L17.0494 13.3577ZM4.53653 13.3864L5.33742 13.3672C4.94362 13.3693 4.70869 13.3767 4.53653 13.3864ZM14.9298 13.2713C14.8832 13.2774 14.8365 13.2833 14.8056 13.2892C14.9163 13.2852 14.9691 13.2774 14.9298 13.2713ZM77.2702 22.806L77.2364 22.8309L77.2373 22.8521L77.2702 22.806ZM78.4573 21.6859L78.9439 21.3225C78.7768 21.4402 78.6145 21.5614 78.4573 21.6859ZM73.8581 13.4535C74.0701 13.4727 74.5679 13.4956 74.3353 13.5174C74.7413 13.4898 74.7143 13.423 73.8581 13.4535ZM75.3267 25.3637C75.3995 25.2866 75.498 25.1967 75.5976 25.1067C75.4071 25.2703 75.2389 25.4128 75.3267 25.3637ZM75.5976 25.1067L75.8752 24.8662C75.7806 24.9451 75.6879 25.0252 75.5976 25.1067ZM68.4634 14.5495C68.4107 14.5403 68.329 14.5332 68.2183 14.5307C68.2507 14.5486 68.3392 14.5523 68.4634 14.5495Z" fill="black" fill-opacity="0.21"/>
<path d="M79.3667 21.0502C79.4251 20.9641 81.5207 19.3695 79.6851 20.6586C79.6585 20.5391 80.8077 19.7921 81.269 19.4282C80.8937 19.6639 81.3821 19.2586 81.2405 19.3103C81.0114 19.4905 80.7534 19.715 80.3485 19.9944C80.1214 20.0935 80.695 19.6407 81.1827 19.3156C80.5509 19.6941 81.8426 18.7341 80.9816 19.2933C79.2593 20.5734 78.053 21.4859 76.9592 22.47C77.9371 21.7378 79.0285 20.9164 79.8886 20.3573L79.6274 20.664C78.6253 21.2748 78.1073 21.7237 77.1868 22.3706L79.2819 20.9366C80.3125 20.2999 79.686 20.7708 78.9437 21.3228C79.1311 21.1901 79.3046 21.0733 79.3667 21.0502ZM78.7205 22.5636L78.7574 22.5409C78.7844 22.5172 78.8197 22.4892 78.8352 22.473L78.7205 22.5636ZM4.38879 11.6714L4.63788 11.6393C4.42998 11.6538 4.36569 11.6639 4.38879 11.6714ZM77.0913 23.1478L77.0926 23.1467C77.0795 23.1573 77.0765 23.1596 77.0913 23.1478ZM2.82362 14.8224C2.8149 14.8248 2.80596 14.8273 2.79071 14.8298C2.81294 14.8273 2.81294 14.8246 2.82362 14.8224ZM4.48075 12.9954C4.4692 12.9915 4.46594 12.9878 4.43891 12.9839C4.30663 12.9886 4.37092 12.9925 4.48075 12.9954ZM2.82841 14.8145C2.82841 14.8173 2.83255 14.8196 2.82362 14.8224C2.82841 14.8196 2.83931 14.8168 2.82841 14.8145ZM32.9696 14.5036C32.9696 14.5036 32.8744 14.4889 32.7245 14.4749C32.6663 14.4829 32.7245 14.4919 32.9696 14.5036ZM72.4509 13.0721C72.217 13.0708 71.983 13.0723 71.7492 13.0766C71.9831 13.0792 72.2171 13.0777 72.4509 13.0721ZM2.79071 14.8296C2.7286 14.8388 2.64012 14.8478 2.49432 14.8594C2.65494 14.8474 2.74015 14.8379 2.79071 14.8296ZM42.0412 14.0755L41.8581 14.0847L41.9669 14.0889L42.0412 14.0755ZM45.146 14.1378C45.0399 14.1473 44.9913 14.1573 44.932 14.1662C46.04 14.1308 48.0759 14.1693 48.3171 14.079C47.941 14.0813 45.9916 14.0283 46.324 13.9754C45.5514 13.998 44.4094 13.9347 43.9936 13.9495C45.2618 13.9987 44.1307 14.0255 43.2745 14.0561C42.4958 14.0299 43.4209 13.9836 42.7506 13.967L40.9489 13.9769L42.5182 13.9888L42.0412 14.0755L42.2014 14.0673C44.8562 14.0268 42.4267 14.1941 45.146 14.1378ZM44.9318 14.1662C44.7658 14.1716 44.6197 14.1782 44.5064 14.1875C44.7568 14.186 44.8542 14.1771 44.9318 14.1662ZM24.7297 12.3001C24.6833 12.2745 23.136 12.2219 23.1637 12.2886L24.5499 12.3094L24.7297 12.3001ZM85.5461 13.9215L84.9902 13.9199L84.8642 13.9302C84.9603 13.94 85.3456 13.9279 85.5461 13.9215Z" fill="black" fill-opacity="0.21"/>
<path d="M46.8017 13.9441C46.5181 13.9543 46.3917 13.9648 46.3237 13.9754C46.5072 13.9702 46.6768 13.9615 46.8017 13.9441ZM85.2977 14.08C85.467 14.0992 85.6917 14.1282 85.6623 14.1537C85.9543 14.154 86.2396 14.1357 86.5617 14.1207C86.5102 14.1653 86.4523 14.2137 86.3814 14.269C86.4499 14.2182 86.5209 14.1659 86.595 14.1106C86.1622 14.1124 85.7294 14.1022 85.2977 14.08Z" fill="black" fill-opacity="0.21"/>
<path d="M25.65 12.3283L26.0613 12.3143L25.8473 12.332L26.9114 12.3523L27.3497 12.3417C27.2972 12.3428 27.2451 12.3484 27.1945 12.3583L27.5353 12.3661C28.3829 12.2971 30.4916 12.2467 31.1 12.2062C31.9048 12.1767 32.8901 12.1599 33.5079 12.1652C32.9354 12.1638 32.1748 12.1777 32.4032 12.2158C33.5661 12.2555 34.1312 12.37 36.1381 12.2716L34.9611 12.2731L37.6074 12.125C38.5345 12.1864 36.2865 12.1988 35.9193 12.2523C37.9775 12.1792 39.6893 12.3742 40.6434 12.246C40.7778 12.3221 41.0032 12.449 42.3539 12.4414C41.3802 12.3546 43.1635 12.3856 42.3646 12.2928C42.8312 12.2493 43.8711 12.3202 43.9489 12.2633L43.8225 12.2948C46.1285 12.4152 46.8836 12.2266 47.8699 12.1644C50.6311 12.1334 51.8992 12.1826 54.1513 12.1699C54.2396 12.2208 54.8529 12.361 55.7564 12.3555C56.1763 12.2867 58.2142 12.2548 58.4221 12.1663C56.807 12.1295 57.1008 12.2404 56.1336 12.261C55.3288 12.1683 56.0608 12.1694 54.9614 12.1141C55.8486 12.1501 58.9704 12.0658 59.942 12.1527L59.5991 12.1649C61.1502 12.2177 61.4468 12.4361 64.0308 12.304L65.2638 12.2498C65.2045 12.2587 65.1976 12.2689 65.166 12.2769C67.1844 12.2861 66.6333 12.3865 68.8616 12.3073C68.6894 12.3133 68.7975 12.3231 68.6225 12.3291C69.8926 12.3786 71.1736 12.2791 72.1338 12.2582C72.7198 12.3319 71.9948 12.3306 71.6321 12.384C73.8666 12.4126 76.2778 12.2862 77.6658 12.1963L79.1058 12.2395C78.2518 12.2699 77.2077 12.3476 77.4683 12.392C78.2605 12.3772 78.1073 12.3425 79.2274 12.3565C79.0363 12.4037 78.5662 12.4474 78.0395 12.5068C80.3565 12.5856 78.5575 12.3398 80.1787 12.4842C80.9066 12.4851 81.3294 12.4163 81.4091 12.3594L82.7243 12.4339C82.8717 12.3615 84.3488 12.3573 85.2931 12.3463C85.3149 12.3308 85.076 12.3115 84.8078 12.2995C84.5382 12.2875 84.2363 12.2831 84.0797 12.297C84.077 12.2685 84.3032 12.2476 84.5916 12.2339C84.9048 12.2203 85.2186 12.2138 85.5324 12.2144C85.6675 12.2462 85.9209 12.2636 86.2465 12.2731C85.9201 12.0144 85.2822 11.5739 84.8396 11.2541C84.398 10.9351 84.1058 10.7042 84.4307 10.8363L82.5792 9.5581L80.5771 8.16507C79.2638 7.2518 78.0476 6.41018 77.2508 5.88571C76.7877 5.49536 75.7613 4.75857 76.4482 5.14877C74.5823 3.81431 73.4654 3.23641 71.6539 1.88294C71.5195 1.75988 72.4928 2.48062 72.4768 2.39775C72.1682 2.19724 71.8679 1.99024 71.5764 1.77702L71.3589 1.61735C71.269 1.55415 71.1914 1.48264 71.1281 1.40473C70.9957 1.23864 70.9372 1.04765 70.9605 0.857207C70.9971 0.471058 71.4275 0.0803902 72.0582 0.0116965C72.2646 -0.0119004 72.476 0.000320264 72.6744 0.0473275C72.8728 0.0943348 73.0526 0.174752 73.1984 0.2818L73.3638 0.397846L73.7116 0.638353C73.3928 0.414359 73.2699 0.370587 73.2102 0.350493C73.2021 0.309058 74.0316 0.863593 74.5417 1.19382C74.8017 1.39834 74.1597 0.946616 74.2939 1.06983C77.8501 3.71617 80.8196 5.54645 84.4229 8.13127C83.394 7.39308 82.9048 7.18575 82.8531 7.20694L83.8611 7.93001C84.3002 8.1727 85.0582 8.71477 85.7294 9.14142C85.7884 9.21027 86.077 9.44517 85.7388 9.23706C86.6859 9.986 87.5103 10.5103 88.3971 11.0705C88.8403 11.3505 89.2995 11.6395 89.7973 11.97C90.0601 12.1445 90.3196 12.3215 90.5757 12.501L90.6265 12.5369L90.6393 12.5459L90.6411 12.547L90.6912 12.5911L90.6958 12.596L90.7028 12.6037L90.7246 12.6283L90.8071 12.725L90.8494 12.78L90.8725 12.8124L90.8863 12.8337L90.8928 12.8445L90.9096 12.878L90.9545 12.9845C91.0303 13.1984 91.0083 13.3973 90.9115 13.5794L90.9198 13.5529C90.9259 13.5302 90.9423 13.5026 90.9584 13.4243C90.9606 13.4092 90.9669 13.3683 90.9689 13.3353C90.971 13.2986 90.9703 13.2619 90.9669 13.2252C90.9641 13.2053 90.9567 13.144 90.9455 13.1079C90.9407 13.087 90.9329 13.0663 90.9261 13.0448C90.9137 13.0082 90.9039 12.9925 90.895 12.9738C90.8856 12.9562 90.8763 12.9386 90.8669 12.921L90.8531 12.8959L90.8346 12.861L90.8202 12.8403C90.8013 12.8144 90.7845 12.7954 90.7686 12.7772L90.7161 12.72L90.6646 12.6679L90.6374 12.6406L90.6202 12.6233C90.5437 12.5568 90.5984 12.6045 90.5809 12.5895L90.5798 12.5889L90.5779 12.5876L90.5735 12.585L90.5652 12.5798L90.4288 12.4948L89.8485 12.1326L88.2678 11.1463L88.9303 11.7198L87.5373 10.8549C88.2595 11.4499 89.0631 11.8421 89.0809 11.963C88.8955 11.8608 88.5065 11.5731 88.4533 11.5932C89.1701 12.1477 89.2851 12.1495 89.8607 12.5401C88.229 11.5932 85.3332 9.51994 83.7355 8.43174C83.4779 8.26491 83.9827 8.55542 84.0417 8.57536C83.4001 8.1241 83.0658 7.81677 82.2381 7.26317C81.6757 6.95397 82.5698 7.56863 82.9582 7.85571C82.8473 7.85711 82.6522 7.71287 82.2037 7.40461C82.1834 7.28249 79.8163 5.66001 79.3412 5.18927C76.9677 3.52676 79.5223 5.59707 77.2611 3.93425L76.662 3.38299C75.887 2.88203 75.1202 2.37466 74.3617 1.86098C73.9562 1.58627 73.5538 1.3092 73.1546 1.0298L72.5952 0.636951C72.4982 0.580019 72.3759 0.549793 72.2504 0.551746C72.2504 0.551746 72.3034 0.548786 72.3559 0.554705C72.4089 0.559378 72.4583 0.572774 72.4583 0.572774C72.5331 0.575266 72.5252 0.556262 72.4751 0.527757C72.4259 0.499718 72.3289 0.476977 72.265 0.469501C72.1492 0.465944 72.0346 0.487383 71.9362 0.531027C71.8399 0.573488 71.7623 0.634427 71.7121 0.706891C71.6562 0.789028 71.6374 0.881547 71.6583 0.971654C71.6792 1.06176 71.7388 1.145 71.8287 1.20986L71.9909 1.3228L72.3197 1.5577C72.5276 1.71035 72.7113 1.85552 72.8621 1.99416C74.2525 2.85711 76.4854 4.35638 78.0177 5.38398C78.3047 5.75144 75.9842 4.06821 75.2956 3.67723L76.6478 4.64315C75.8105 4.04702 75.4374 3.84204 74.8721 3.53019C76.0359 4.3919 76.5247 4.59953 77.6764 5.38165C77.5581 5.3413 77.6893 5.46202 78.2064 5.83291L78.4289 5.88416C78.4324 5.89537 78.4839 5.94039 78.639 6.05815L80.6834 7.45352C80.2916 7.12734 80.3367 7.06597 79.8215 6.69633C79.9619 6.85942 79.5153 6.55271 78.9997 6.18261C79.5016 6.47109 78.5375 5.79288 78.5891 5.77169C79.6228 6.51346 80.9053 7.41567 81.6051 7.88624L81.7561 8.09357C82.241 8.45261 82.7533 8.81135 83.226 9.14204L83.8964 9.61356L84.193 9.82696L84.504 10.0566L84.3388 9.96481C84.2625 9.92353 84.2108 9.89986 84.2076 9.89752C85.579 10.9057 87.1788 11.9976 88.3406 12.894L87.7956 12.8792C86.9304 12.9193 85.8543 12.956 84.7541 12.9933C83.6944 13.0305 82.3802 13.068 81.9215 13.1101C81.2686 13.2007 77.5383 12.9965 75.8541 13.1239C75.7406 13.1141 77.0109 13.0557 77.5856 13.0216C76.4652 13.0076 75.5745 13.1202 75.2234 13.0249C77.7372 13.057 75.0883 12.9489 76.2207 12.9218C75.0438 12.9235 73.8025 12.9408 73.2252 12.9747C75.1301 12.9739 72.5488 13.1065 74.4772 13.0649C72.9829 13.1451 70.9435 13.1771 69.1628 13.1461C69.1802 13.1049 68.9608 13.0858 68.297 13.0688L67.7615 13.1285C66.9284 13.1177 69.3729 13.0579 67.6952 13.0367C65.9692 13.1387 62.4976 12.9788 61.7423 13.1674C60.4268 13.0929 64.2454 13.092 62.2629 13.0007C63.4164 12.9325 65.0073 13.0105 65.3874 12.9165C64.257 12.9433 64.9748 12.8369 64.2456 12.8359L62.9849 12.894L63.2636 12.8976C61.1482 12.9866 57.7962 12.9439 55.0945 12.959C52.8061 13.0538 51.2306 13.1909 48.4858 13.1806C49.2961 13.125 46.206 13.1271 47.934 13.025C46.6639 12.976 45.41 13.0341 45.3849 13.0752C46.5024 13.0894 45.7778 13.0884 46.7193 13.1087C46.084 13.1585 44.6193 13.1563 44.0176 13.1238C44.2965 13.1274 44.1904 13.1179 44.2519 13.1021C42.9175 13.0686 43.6122 13.1517 42.6481 13.1725C42.3422 13.1028 40.5189 13.1539 39.6383 13.1177L38.3614 13.2172C39.0632 13.1518 37.138 13.1934 36.9366 13.1331C36.0209 13.1792 35.2531 13.2602 33.8588 13.2426C34.4348 13.2085 32.5865 13.1934 32.5623 13.1271C30.1745 13.0635 28.608 13.3081 26.3465 13.213C26.4167 13.1975 26.8733 13.1539 26.2121 13.1372C25.6914 13.1557 24.7798 13.1479 24.2228 13.1551L24.2405 13.1532C24.2308 13.1538 24.2211 13.1544 24.2115 13.1551C23.9386 13.1587 23.7671 13.1669 23.7604 13.183C22.8069 13.2479 22.3153 13.3144 20.4387 13.3694C20.5764 13.4455 22.1605 13.416 22.8466 13.3917L23.4396 13.3166C24.0062 13.4313 25.1318 13.2967 25.5633 13.3355C24.4377 13.4699 21.1958 13.4367 19.2509 13.5196C20.4367 13.6255 23.0161 13.6419 25.2669 13.6291L24.2755 13.5835L25.4532 13.5821L24.3135 13.5012C25.429 13.5152 26.3934 13.4945 27.4015 13.499C26.221 13.5006 25.7614 13.3959 26.4291 13.4123C27.7445 13.4869 27.7999 13.3635 28.8054 13.3682C28.2456 13.3613 27.5177 13.3599 27.9871 13.3165C29.9696 13.4076 30.5051 13.3484 32.308 13.4458C32.0846 13.3191 34.5607 13.4333 34.8308 13.3294L33.9941 13.3188L35.7687 13.2422C37.4063 13.3453 34.3188 13.3475 36.8107 13.4205C39.11 13.4333 39.0505 13.3001 40.8583 13.2903C40.2627 13.3654 38.8291 13.4297 37.3705 13.4275L38.2538 13.4637C37.7865 13.5071 35.7689 13.4981 34.7621 13.4936C36.426 13.4073 33.9834 13.4671 33.2266 13.3997C33.0873 13.4724 34.1556 13.4609 32.8945 13.5193C34.0761 13.5177 34.2489 13.5117 35.7522 13.5391C32.5028 13.5062 32.8304 13.7913 29.9942 13.7302C31.3016 13.6973 29.5385 13.6255 29.3812 13.5903C28.766 13.5992 27.5181 13.6163 27.0049 13.6344L27.4695 13.7394C25.8172 13.7847 25.2431 13.5626 23.3363 13.6707C23.0885 13.7336 25.0137 13.692 24.6706 13.7042C22.0614 13.7702 21.1214 13.6011 18.8046 13.5222C18.6737 13.5536 18.7007 13.6202 17.8904 13.6755C18.145 13.6126 17.5454 13.5803 18.457 13.5344C17.6825 13.5076 16.7648 13.5539 16.0814 13.5785C17.6938 13.6152 15.4217 13.6688 15.1244 13.7065C14.2891 13.6959 15.379 13.6439 15.8929 13.6255C15.2223 13.6085 14.4255 13.5157 14.0446 13.6099C14.0182 13.5436 15.9192 13.4356 17.1623 13.4183L16.3244 13.4078C16.9017 13.374 17.0098 13.3835 17.8416 13.3937C17.0272 13.3423 17.1076 13.2856 17.2972 13.2384C17.404 13.2481 17.2379 13.2542 17.3397 13.2637C18.0096 13.2805 18.5235 13.2624 18.3681 13.2272C18.9705 13.1381 17.4389 13.1716 16.9851 13.1271C16.6444 13.1331 16.3036 13.139 15.9628 13.1448L12.4825 13.4308C10.9955 13.4643 10.3269 13.3958 9.21005 13.3526L8.90342 13.4289C7.60957 13.421 6.38873 13.397 7.21795 13.3C7.26459 13.3255 7.43544 13.3194 7.71635 13.323C7.7534 13.3127 7.81835 13.3054 7.90007 13.2993C7.92709 13.2948 7.94191 13.2903 7.96414 13.2859L5.63382 13.3297C7.98637 13.2187 5.7515 13.1908 6.14508 13.0551L3.76877 13.0993C5.20907 13.1423 3.79514 13.1657 3.28388 13.1841C3.24857 13.1649 3.11128 13.1554 2.91231 13.1517L2.57234 13.1501L2.37707 13.1517L2.27464 13.1529L2.22256 13.1535H2.21689L2.24043 13.1534L2.23389 13.1535L2.2206 13.154L2.19423 13.1548C2.20687 13.156 2.19379 13.1576 2.18747 13.1602C2.16701 13.168 2.15013 13.1799 2.13887 13.1944C2.12405 13.2138 2.12427 13.2266 2.1197 13.2411L2.09812 13.2355L2.09442 13.2417L2.09398 13.2425L2.09376 13.243V13.2431L2.09333 13.226L2.09311 13.2397L2.09267 13.2652C2.09071 13.2458 2.0894 13.2599 2.08897 13.2629C2.08919 13.2722 2.09028 13.2825 2.09747 13.293C2.10666 13.3072 2.12103 13.3195 2.13908 13.3284C2.15713 13.3374 2.1782 13.3427 2.20011 13.3439L2.30363 13.3436C2.44354 13.3422 2.5828 13.3408 2.71988 13.3397L3.49963 13.3271C3.45582 13.3014 4.69018 13.1768 5.28317 13.1015C3.63213 13.0729 4.61194 13.0423 4.47944 12.995C4.6503 12.9992 4.95758 13.0001 4.99332 12.9904C5.22956 12.9688 4.67253 12.9615 4.62589 12.9362L3.31809 12.9601L2.69046 12.9719L2.38906 12.9785L2.24217 12.9819L2.21646 13.2406C2.21275 13.2565 2.21515 13.2448 2.21973 13.2419C2.2243 13.2377 2.22212 13.2406 2.21559 13.2431C2.20948 13.2459 2.20512 13.2456 2.21624 13.2444L2.22125 13.2439C2.22343 13.2456 2.22714 13.2529 2.2291 13.2573C2.23062 13.2852 2.24326 13.2003 2.23847 13.2433C2.22714 13.2433 2.2206 13.2426 2.21602 13.2423C2.19793 13.2545 2.23542 13.2283 2.21428 13.2489C2.21428 13.2459 2.22779 13.2353 2.21885 13.2415C2.21537 13.2436 2.20665 13.2461 2.20948 13.2453L2.21515 13.2445C2.2182 13.2439 2.22234 13.2405 2.22932 13.2577C2.23128 13.2725 2.23476 13.2465 2.23803 13.2375L2.24043 13.2282L2.24152 13.2235C2.24174 13.2188 2.23934 13.2615 2.24021 13.2434H2.23454L2.21864 13.2426C2.19292 13.2361 2.23716 13.2528 2.22038 13.245C2.21602 13.2417 2.21319 13.2319 2.21624 13.2425C2.21362 13.245 2.22387 13.2445 2.20839 13.2486L2.19227 13.2523C2.18682 13.2532 2.2097 13.2549 2.21689 13.256L2.23346 13.2581L2.24174 13.2592L2.24588 13.2596C2.18987 13.4521 2.23106 13.313 2.21864 13.356H2.2546L2.32063 13.3562L2.58999 13.3567L3.06813 13.4207L4.53545 13.3861C3.92285 13.4199 4.29159 13.4866 2.75191 13.4993C2.94848 13.5596 4.27873 13.4856 5.22149 13.506L5.70355 13.4212C5.51788 13.4683 7.53547 13.4774 6.10193 13.5419L3.76943 13.6112L4.41777 13.6693L2.44616 13.6855L2.91144 13.6417L2.37816 13.6495L2.26288 13.6506L2.2352 13.6508L2.22147 13.6509H2.21798C2.27377 12.8691 2.23237 13.4341 2.24457 13.2595L2.24283 13.2593L2.23607 13.2585C2.22278 13.2563 2.18856 13.2537 2.19357 13.2521C2.20174 13.2508 2.2096 13.2487 2.21689 13.2458L2.21624 13.2419L2.21537 13.2383C2.2175 13.2415 2.22013 13.2446 2.22321 13.2475C2.2192 13.245 2.21463 13.2431 2.2097 13.2417L2.21711 13.2426L2.23825 13.2436H2.24065L2.24195 13.2235L2.24174 13.2244L2.24087 13.2282L2.23694 13.2434C2.23433 13.2531 2.23149 13.2704 2.22953 13.2579C2.22321 13.2423 2.21885 13.2434 2.21559 13.245C2.20142 13.2473 2.21559 13.245 2.22125 13.2409C2.22409 13.2392 2.2206 13.2411 2.21689 13.2459C2.21515 13.2479 2.21428 13.2503 2.21471 13.2492L2.21624 13.2425L2.21711 13.2358L2.22278 12.9141C3.2209 12.8113 4.29376 12.8004 6.24816 12.8253C4.83423 12.8482 6.1028 12.8978 5.57083 12.9573C7.01331 13.0001 7.50017 12.9154 8.24832 12.8755C8.61575 12.9297 8.87705 12.9741 7.58865 12.9662C7.42716 13.0797 9.28349 12.9465 9.40095 13.0635C13.6693 13.0601 12.8211 12.6856 17.8106 12.8319L17.6237 12.8791C20.7921 12.8204 22.6199 12.8766 25.5539 12.8395L27.864 12.9596C27.3475 12.978 25.9584 13.0677 26.6065 13.1255C25.4829 13.0042 24.2904 13.0465 23.0795 12.9814C22.956 13.0129 23.4489 13.0358 23.6636 13.0552C22.9329 13.0542 22.5663 12.9998 21.6013 13.0208C21.648 13.0459 22.7006 13.076 21.9073 13.0908L20.5947 13.0162C18.8382 13.0518 19.7297 13.195 17.6666 13.1607C18.0502 13.094 18.8334 12.9976 19.6323 12.9817C18.6896 12.9672 20.8889 12.9414 20.0287 12.9015C18.6708 13.0003 18.0151 12.9221 16.2095 12.9839C16.4216 12.9702 16.4776 12.9509 16.9219 12.9448L14.302 12.9031C14.9503 12.9609 12.1377 12.9665 12.3816 13.0523C15.1739 13.088 14.3532 13.0361 17.5352 13.0847C16.6343 13.1042 15.4729 13.1915 14.9287 13.2718C14.9011 13.2685 14.8551 13.2657 14.7572 13.2641C14.271 13.349 14.7666 13.3719 14.7572 13.5204C16.2097 13.4148 17.1808 13.5015 18.894 13.4408C19.2161 13.3595 17.9 13.3372 17.0483 13.3582L18.5575 13.3043L18.2605 13.3419L22.0912 13.369C21.3653 13.3733 21.1188 13.4205 20.7401 13.456C21.2343 13.4593 21.724 13.4807 22.2444 13.5045C22.135 13.4269 22.2039 13.3721 22.6862 13.3735C25.151 13.3919 26.5209 13.4615 27.4305 13.5503L27.7175 13.5448C27.3043 13.4652 29.4677 13.402 30.2316 13.3207C30.1936 13.4029 31.5017 13.3701 32.2121 13.412C32.5902 13.3176 32.0857 13.1873 31.2208 13.1102C29.5542 13.1965 30.2869 13.1973 29.4995 13.3196L26.8262 13.4012L27.4238 13.3258C26.0894 13.2928 24.8077 13.3922 24.9056 13.2942C25.6106 13.2289 26.7748 13.2685 27.4743 13.2031L26.5917 13.1672C28.1488 13.071 27.3898 13.2599 29.2751 13.1928C28.5816 13.1096 29.4459 13.1869 30.2536 13.1311C29.6052 13.0732 26.9341 13.1548 27.5005 13.0133C28.4809 12.9517 30.7991 13.1791 32.0964 13.0386L32.0328 13.0546C33.9464 13.0729 34.6191 12.9922 35.3355 12.9412C36.1499 12.987 37.2742 12.9225 38.1568 12.9174L38.1352 12.9585L39.3805 12.9414C38.7875 13.0163 37.9212 12.9394 36.8516 12.9503L36.9846 13.0267C35.7515 12.9359 34.929 13.0739 33.973 13.1398C35.3647 13.0736 37.9029 13.1585 38.2298 13.0091L39.0906 13.0862L39.5025 13.0584C40.1441 13.1163 39.489 13.2071 38.2453 13.2244C38.0291 13.2051 37.9212 13.1954 37.9866 13.1796C37.4093 13.2137 36.8791 13.273 35.4819 13.2554L36.2275 13.2149C34.4882 13.2095 32.9067 13.2389 32.3111 13.3141C34.8223 13.3461 37.2916 13.3529 39.6498 13.3492C40.3453 13.1766 41.1706 13.0797 41.5249 12.9191C43.1071 12.8895 45.255 12.8674 46.629 12.9261L46.5029 12.9577C47.1734 12.9741 47.7913 12.9655 48.3065 12.9473C49.0147 12.9895 47.8216 13.0322 48.3152 13.0549L50.5814 13.001C50.4415 13.0738 48.5344 13.0741 47.6291 13.0792C47.7998 13.073 48.145 13.061 48.034 13.0512C46.9808 13.0213 45.0183 13.1451 44.5578 13.04C44.0448 13.0582 45.6004 12.9624 43.8631 12.957C42.6996 12.9174 42.3208 13.0118 42.1992 13.0433C42.1802 13.0845 44.025 13.0996 43.3849 13.1493C44.2904 13.1442 44.6511 13.0911 45.8092 13.1308C44.9118 13.1358 43.6929 13.2193 43.215 13.1554C41.4404 13.2322 41.6949 13.4254 42.5315 13.4361C42.3323 13.3755 45.7687 13.3615 43.4418 13.2825C44.487 13.2046 46.3967 13.204 47.764 13.1554L47.7019 13.171L49.3996 13.1515C49.1605 13.1732 48.6473 13.1915 48.6305 13.2325L50.9818 13.1222C49.6583 13.1964 51.8023 13.1736 52.4044 13.2063C52.6563 13.1434 53.5747 13.0973 52.6934 13.0612C51.7029 13.0155 52.1167 13.0953 51.216 13.1001L52.4918 13.0007L52.6012 13.0105L53.3688 12.9292C55.1063 12.935 52.6099 13.1182 54.8361 13.0387L54.5464 12.928C57.1239 12.9443 60.434 13.069 62.2553 13.0179C61.7527 13.0808 61.5313 13.1822 62.2222 13.2422C61.4367 13.223 59.8587 13.2271 58.7324 13.2375C58.5156 13.218 60.1396 13.1065 61.3631 13.1303C60.7701 12.949 58.2853 13.2398 58.1414 13.056C55.0237 12.9919 55.8159 13.2331 53.1696 13.1252C53.1332 13.2073 52.4175 13.1652 52.2782 13.2377C53.0617 13.3716 55.8159 13.2331 57.533 13.2799C57.3649 13.2858 57.0267 13.2981 56.9605 13.3137C58.1881 13.3378 58.6952 13.3194 59.5529 13.2891L59.4449 13.2792C60.9433 13.199 60.3719 13.3405 61.2539 13.3766C61.5956 13.3644 62.8219 13.3881 62.6247 13.3278L64.2217 13.4057L64.1445 13.3141C65.0454 13.3088 65.2427 13.3693 66.059 13.3135L66.0967 13.2316L63.8595 13.2031C64.9933 13.1763 64.1755 13.1246 65.4214 13.1073C64.0297 13.197 66.406 13.1528 66.5431 13.2289L67.4592 13.1828L67.225 13.2046C67.9441 13.2468 68.0812 13.1741 68.9204 13.1848C67.9306 13.1392 67.2823 13.0814 66.0209 13.1397C66.9392 13.0936 68.7603 13.0425 69.2075 13.0397C70.1718 13.0052 70.845 13.0679 71.747 13.0771C70.0158 13.1099 72.3533 13.3257 68.8838 13.2668C68.9479 13.2511 69.2288 13.2546 69.3376 13.2643C68.8751 13.1595 67.2579 13.2708 66.5056 13.3109C66.6995 13.3713 65.9126 13.3861 67.2463 13.4196C66.8087 13.381 68.3697 13.285 69.6387 13.3344L69.4154 13.4637L71.263 13.4789L71.0902 13.485C71.7849 13.568 73.0613 13.4688 74.3334 13.5179C75.2517 13.4716 78.7755 13.5084 77.2593 13.3732C78.4013 13.454 79.4033 13.3511 80.6492 13.3338L79.0962 13.281C80.9323 13.1886 80.4034 13.2482 81.8729 13.1012C82.0215 13.1366 82.3491 13.1655 82.0503 13.2028L85.6217 13.2121L89.6351 13.2104C88.4195 14.0899 87.3896 14.8534 86.7674 15.3592C86.3307 15.6703 85.8862 15.9758 85.4341 16.2754L84.8849 16.6351L84.6336 16.7974L84.4673 16.8991C84.0188 17.1755 83.5165 17.502 82.6834 18.1397C82.338 18.4121 83.0859 18.0225 81.9069 18.8126C81.8206 18.8609 82.9118 17.9591 81.6499 18.8754C80.8425 19.593 79.4678 20.3573 78.3749 21.2606C77.7172 21.68 76.6511 22.4612 76.7982 22.2448C77.8015 21.5532 79.1799 20.5446 79.3549 20.3659C79.266 20.4968 80.1016 19.8974 79.4114 20.4422C80.9598 19.4196 80.3302 19.7168 81.7066 18.7903C81.7676 18.7022 80.9334 19.2199 80.6749 19.4445C80.5625 19.3731 83.2587 17.5242 81.9435 18.2824C80.506 19.2966 80.3036 19.758 78.9539 20.5626C79.3854 20.1619 80.2162 19.6463 80.7349 19.1162L79.6753 19.8126L79.0139 20.395L79.0422 20.3525C77.1486 21.567 77.4899 21.6184 75.9358 22.8052C76.9407 22.1925 75.9047 23.0909 76.6504 22.6224C75.5891 23.4003 74.7856 23.9545 74.6723 23.8836C76.5962 22.3845 74.674 23.7218 76.4268 22.3172C76.0838 22.5082 76.7141 21.8898 75.5946 22.6732C74.4223 23.6194 76.0566 22.4696 74.8468 23.3842C74.7636 23.43 74.6777 23.4778 74.7058 23.4356C74.1885 23.8844 74.0178 23.8989 73.3858 24.4377L73.5288 24.305C73.0696 24.5874 72.8541 24.7673 72.6529 24.9363C72.5522 25.0207 72.4553 25.1024 72.3328 25.1927C72.2718 25.2379 72.2042 25.2851 72.1271 25.336L72.0671 25.3748L72.0358 25.3947L72.0316 25.3974L72.031 25.3977L72.0436 25.3883L72.0427 25.389L72.0408 25.3904L72.0327 25.3955L72.0168 25.4059L72.0028 25.4151L72.0022 25.4145C72.0013 25.4144 72.0018 25.4117 71.9967 25.4156L71.9717 25.4298C72.058 25.4161 72.0305 25.458 72.0233 25.5095C72.01 25.5637 72.0467 25.6424 72.114 25.6575C72.0706 25.5944 72.1532 25.5257 72.2042 25.5371C72.2055 25.5383 72.1885 25.5516 72.2029 25.5419L72.2219 25.5298L72.2315 25.5237L72.2363 25.5204L72.2373 25.5197C72.2417 25.5167 72.2044 25.544 72.2203 25.5323L72.221 25.532L72.2236 25.5304L72.3034 25.4813L72.4712 25.3768L72.843 25.1371C73.1629 24.9252 73.4761 24.7082 73.7825 24.4863C73.8975 24.3146 73.7557 24.3668 74.3295 23.9135L73.381 24.6022C73.5772 24.4475 73.7182 24.3237 73.8947 24.1796L74.8451 23.5464C73.7256 24.4104 74.326 24.0765 73.8962 24.4765C72.8035 25.2184 73.0343 25.117 72.3441 25.5813C72.3426 25.5742 72.3326 25.5732 72.3149 25.5781L72.3003 25.5826L72.2962 25.584L72.294 25.5849L72.2933 25.5851C72.2992 25.5799 72.3048 25.5746 72.3103 25.5692L72.3101 25.5693L72.309 25.5698L72.3008 25.574C72.2916 25.5781 72.2694 25.5904 72.2648 25.5908C72.2685 25.5869 72.2781 25.5729 72.274 25.5728L72.265 25.5683C72.2591 25.5654 72.2524 25.5634 72.2454 25.5623C72.2166 25.5563 72.1783 25.5835 72.187 25.62C72.1881 25.6222 72.1885 25.625 72.1903 25.6275L72.1911 25.6296L72.1914 25.6298V25.6299L72.1757 25.619L72.1796 25.6222L72.1874 25.6281C72.1946 25.6335 72.216 25.6493 72.2116 25.6463C72.2077 25.6439 72.2034 25.6419 72.1988 25.6402L72.2012 25.6435C72.2033 25.6458 72.2051 25.6483 72.2073 25.6503C72.2166 25.6602 72.2291 25.6684 72.2437 25.6742C72.2666 25.6832 72.2922 25.6881 72.3184 25.6884C72.3446 25.6888 72.3705 25.6845 72.3938 25.676L72.4097 25.6698L72.4819 25.6225L72.7612 25.439L73.2797 25.1005L72.7068 25.5047C72.6343 25.5625 72.5644 25.622 72.4973 25.6831C72.4527 25.7239 72.4716 25.7173 72.4747 25.7228C72.4742 25.7307 72.5124 25.7105 72.5616 25.681L72.7462 25.5665C73.03 25.3852 73.4251 25.1184 73.4543 25.1154L74.0579 24.6187C73.942 24.7106 73.7942 24.8467 74.0843 24.6579C74.9462 24.0176 74.8046 23.9892 75.6649 23.3497C75.7811 23.3387 75.1155 23.9237 75.6878 23.5525C75.9197 23.4495 76.636 23.1048 77.7575 22.2395C77.8209 22.1666 78.1123 21.9429 78.4544 21.6864C78.4085 21.7231 78.3494 21.7681 78.3309 21.7865L79.1605 21.2722C78.5865 21.8054 77.7852 22.1971 77.2083 22.7328L77.2338 22.8316C76.718 23.2007 76.0522 23.7269 75.7722 23.9877C76.5731 23.435 76.7173 23.3014 77.5803 22.6604C77.7551 22.6091 77.1739 23.0796 77.09 23.1473L77.1748 23.0204C76.0577 23.7221 75.6841 24.1978 74.3626 25.1206C74.1621 25.2592 74.2763 25.1689 74.3048 25.1263C74.0607 25.3276 73.8075 25.523 73.5456 25.7125L73.154 25.9933C73.0212 26.0877 72.9003 26.1803 72.7397 26.2328C72.4258 26.3448 72.0388 26.3332 71.7376 26.2075C71.4341 26.084 71.2166 25.8541 71.173 25.5913C71.173 25.5913 71.1904 25.6775 71.2338 25.7556C71.2758 25.8346 71.3412 25.9019 71.3412 25.9019C71.2691 25.8095 71.2245 25.7073 71.2104 25.602C71.1963 25.4966 71.2128 25.3903 71.2591 25.2897C71.31 25.17 71.4205 25.0525 71.557 24.9523L71.9658 24.6249L73.8217 23.1375L73.8008 23.107C73.6299 23.2018 74.1442 22.8358 74.4325 22.6481L74.4317 22.6495L76.2139 21.2307C75.9757 21.3672 75.7465 21.5115 75.5272 21.6633C75.35 21.8432 74.0629 22.7197 74.3201 22.6571C73.6883 23.0356 72.8264 23.7567 72.3677 24.0383C73.1991 23.5221 71.907 24.4822 71.8176 24.6129C71.7389 24.6498 71.628 24.7201 71.506 24.8025C71.4436 24.8452 71.3844 24.8846 71.3148 24.9361C71.2414 24.9919 71.1779 25.0541 71.1261 25.1212C70.9202 25.3835 70.9662 25.6398 70.9064 25.574C70.9034 25.6728 70.887 25.5469 70.9566 25.357C70.9923 25.2628 71.0555 25.1545 71.1446 25.0559C71.1871 25.0081 71.2412 24.9572 71.2924 24.915C71.3436 24.8729 71.3789 24.8439 71.4164 24.8087C71.6029 24.6514 71.5997 24.6368 71.5042 24.691C71.4565 24.7181 71.3859 24.7625 71.3046 24.8151C71.222 24.865 71.0921 24.9626 71.0126 25.0609C70.835 25.2617 70.7994 25.4963 70.7909 25.5782C70.7857 25.6198 70.7785 25.6256 70.7685 25.5759C70.7622 25.527 70.7463 25.4192 70.809 25.2436C70.7184 25.4725 70.7332 25.7162 70.8511 25.9387C70.9125 26.0533 71.0004 26.1597 71.1113 26.2535C71.1677 26.3011 71.2288 26.3437 71.2904 26.3809C71.3654 26.4262 71.431 26.4588 71.509 26.4913C71.8199 26.6197 72.1849 26.664 72.5376 26.6163C72.7149 26.5923 72.8846 26.5454 73.0382 26.4778C73.1919 26.4144 73.3342 26.3077 73.4113 26.2497C74.1543 25.7058 74.9004 25.1566 75.532 24.6576L74.7581 25.1686C75.3598 24.7536 76.7426 23.7422 76.8821 23.6922C76.4512 24.0123 75.9369 24.3783 75.3895 24.7905C75.4435 24.8681 76.7391 23.8251 76.852 23.8162L78.3494 22.5535L77.63 23.0612C78.031 22.7041 79.5853 21.6784 80.7041 20.8949C80.18 21.4287 79.0359 22.0915 77.9149 22.9563C77.1107 23.5916 78.5453 22.6594 77.7706 23.2512C78.0042 23.1213 78.524 22.7454 78.7539 22.5411L79.0901 22.3295C78.4767 22.9127 76.8516 24.0419 75.8718 24.8665C75.9546 24.7919 76.0245 24.7254 76.0424 24.6958C75.182 25.2549 74.3493 25.8522 73.5754 26.4437C74.0309 26.1638 74.1769 26.0284 74.4071 25.8471C74.4347 25.8452 74.2621 25.9812 74.0505 26.1458L73.7236 26.4005L73.5691 26.5226C73.4985 26.5757 73.4224 26.6249 73.3414 26.6697C73.4257 26.6299 73.5054 26.5854 73.5798 26.5365L73.6907 26.4658C73.75 26.4287 73.7929 26.4033 73.8241 26.386C73.8866 26.3516 73.9025 26.3504 73.9095 26.3549C73.9232 26.3641 73.9015 26.3965 74.1453 26.234C74.0343 26.3219 73.9215 26.4086 73.8069 26.4941L73.723 26.5564L73.6761 26.5906C73.6495 26.6088 73.6236 26.6275 73.5955 26.6449C73.4835 26.7164 73.3603 26.7784 73.2285 26.8297C72.6989 27.0345 71.9804 27.0839 71.3048 26.8135C71.1394 26.734 71.1056 26.6985 71.1276 26.7027C71.1512 26.7055 71.2373 26.7418 71.3458 26.7755C71.5613 26.8493 71.8649 26.884 71.7991 26.8452C71.478 26.7914 71.1867 26.6704 70.9622 26.4977C70.7598 26.3419 70.6158 26.152 70.5436 25.9457C70.4625 25.7156 70.4666 25.4744 70.5554 25.2458C70.6238 25.0677 70.7423 24.9014 70.9036 24.757L70.9655 24.7047L71.013 24.6668L71.1643 24.5463L70.9561 24.6896C70.9481 24.6944 70.9125 24.7223 70.8927 24.7383L70.8358 24.7865C70.8025 24.8154 70.7748 24.8428 70.75 24.8676C70.6541 24.9673 70.6138 25.0243 70.5961 25.0371C70.5658 25.0654 70.6111 24.9119 70.8145 24.7097C70.9378 24.5961 70.9947 24.5541 71.0764 24.4829L71.3242 24.2762C71.4903 24.1385 71.6474 24.0078 71.7422 23.9294L71.54 24.069C71.8571 23.7584 72.1735 23.5286 72.4871 23.3814C72.0262 23.7455 71.54 24.069 71.7378 24.0131C72.0556 23.7824 72.3725 23.5521 72.7174 23.2799L72.4306 23.5465L74.0106 22.3995C74.21 22.1817 74.5568 21.8273 74.6997 21.6142C75.1295 21.3753 75.6214 20.9667 75.9657 20.6946L75.819 20.8307C76.5665 20.3608 78.0916 19.217 78.1766 19.0894C78.7201 18.7604 74.9262 21.8368 78.43 19.2706C79.7781 18.3065 79.1213 18.564 79.8396 17.9769C79.8396 17.9769 79.8113 18.019 79.8976 17.9713C80.4986 17.5571 80.5012 17.4744 80.9624 17.1107C80.586 17.3474 80.0721 17.7132 79.9285 17.8467C80.044 17.6752 81.1631 16.9722 81.5663 16.6139C81.0753 17.1019 82.7435 15.8248 82.3373 16.1854C82.4916 16.086 82.6452 15.9843 82.7967 15.8814L83.158 15.6312C83.2716 15.551 83.3794 15.4667 83.4808 15.3785C83.6627 15.2195 83.7484 15.1061 83.7475 15.0562C83.9432 14.972 84.0753 14.895 84.1673 14.8298C84.0335 14.8293 83.8554 14.8418 83.6813 14.8495C83.5037 14.8575 83.3339 14.8606 83.1373 14.8416C83.2304 14.8452 83.449 14.827 83.5666 14.84C83.846 14.8014 83.6976 14.7913 83.5466 14.7819C83.4054 14.7726 83.2578 14.7643 83.6752 14.729C83.5015 14.7411 83.588 14.7701 83.7591 14.758C84.0324 14.7491 84.397 14.7154 84.434 14.6801L84.1542 14.646L83.8345 14.6118L84.1568 14.5933L83.5941 14.5459C83.3786 14.5303 83.1632 14.5145 82.9477 14.4986C82.9033 14.5142 83.0242 14.5336 83.0809 14.543L82.7886 14.5363L82.4286 14.5316L81.4072 14.5271C80.7216 14.5287 80.029 14.5302 79.3469 14.5315C77.9822 14.5379 76.6585 14.5478 75.51 14.5414C75.0785 14.7592 69.8547 14.6349 67.9982 14.7684C68.4959 14.7061 68.7681 14.596 68.4602 14.5506C68.874 14.5414 69.7216 14.4536 70.6602 14.4718C70.8101 14.5069 71.9695 14.5464 71.2233 14.5861C73.8178 14.5615 70.8722 14.4908 71.6378 14.4097C68.7633 14.431 67.0772 14.5584 65.2627 14.6095L65.2167 14.584L63.8466 14.6327C64.9663 14.647 64.911 14.7706 63.4678 14.7273L63.6435 14.7212C62.8206 14.6693 61.1079 14.7304 59.8223 14.7221L58.9506 14.7936C57.6628 14.7854 57.6075 14.6528 57.1888 14.5731C55.1704 14.5637 54.0049 14.6727 52.5713 14.7374C51.923 14.6796 48.8999 14.6659 50.5017 14.5956C48.6811 14.6466 49.0485 14.957 45.9262 14.7851L46.7365 14.7293C43.7513 14.7408 39.4938 14.852 38.1182 14.7932C39.2196 14.5924 34.3895 14.5889 33.8588 14.3922C34.0068 14.4371 32.8851 14.4522 32.7216 14.4762C32.4758 14.4531 32.0665 14.4305 31.6324 14.4713C32.7966 14.5109 30.8141 14.6756 33.0396 14.5961C31.9133 14.7312 30.4621 14.8365 27.9947 14.8298L28.0318 14.7477L29.984 14.7726C29.7868 14.712 30.7916 14.7167 31.2035 14.6886C27.572 14.6427 31.6791 14.4966 27.9664 14.5073C27.6079 14.5606 27.8402 14.5385 26.8752 14.5597C27.329 14.5569 27.4107 14.5003 26.6793 14.4991L25.9771 14.5648C24.6807 14.4279 28.1231 14.4757 27.0169 14.3794C28.4504 14.3149 30.9335 14.2804 30.4709 14.1757C28.1296 14.1377 28.3646 14.372 25.917 14.3243L25.6563 14.2797C24.7955 14.3101 24.6563 14.3822 24.1851 14.426C24.1426 14.4005 23.9238 14.3816 23.3707 14.3743C21.9169 14.4799 20.9519 14.5006 19.6108 14.6156C23.1802 14.5291 22.6622 14.696 26.3465 14.6189C25.7692 14.653 23.1754 14.6779 23.0161 14.7913L23.0506 14.7089C21.8526 14.7517 20.6553 14.7941 19.1509 14.767L20.0693 14.7207C18.0752 14.7779 16.7546 14.596 15.1811 14.7326C15.7368 14.7399 16.1879 14.7374 16.531 14.7249C15.5047 14.7615 14.2168 14.7534 13.1014 14.7396L10.7933 14.8752C10.8136 14.8344 9.35083 14.8321 10.0567 14.767C8.39499 14.7044 7.61153 14.827 6.65133 14.8474C4.94952 14.76 8.12541 14.8084 8.29213 14.6949C7.13916 14.6765 5.9858 14.6742 4.83271 14.6879C4.33148 14.6938 3.83035 14.7036 3.32943 14.7175L2.68762 14.7393L2.40104 14.7516L2.26723 14.7583C2.23978 14.7592 2.23651 14.7608 2.19009 14.7614C2.14912 14.7618 2.10858 14.7625 2.06827 14.7612L2.45204 14.7773L2.67128 14.7893C2.78591 14.7974 2.83799 14.8058 2.82579 14.8157C2.79027 14.803 2.53638 14.7981 2.22561 14.7964C1.93794 14.7989 1.58272 14.7485 1.29156 14.648C1.01878 14.5561 0.775775 14.4246 0.57806 14.2618C0.57806 14.2618 0.444687 14.1741 0.333543 14.0687C0.220655 13.9645 0.134137 13.8445 0.134137 13.8445C-0.0221185 13.5363 -0.00773515 13.3031 0.0116606 13.1604C0.0365046 13.0166 0.0715907 12.9574 0.0794362 12.9691C0.0898968 12.9808 0.0761677 13.064 0.0831414 13.2071L0.0846669 13.2347L0.0851026 13.2417L0.0855382 13.264L0.0859746 13.2658L0.0872823 13.2733L0.0936021 13.3074L0.10646 13.3912L0.124112 13.4651C0.1548 13.5785 0.203268 13.689 0.268599 13.7947C0.192593 13.6547 0.145038 13.5076 0.127381 13.3579L0.119536 13.2676L0.119318 13.1967C0.120871 13.1005 0.135468 13.0046 0.162904 12.9104C0.252686 12.5953 0.479989 12.3086 0.812117 12.0917C1.15398 11.8678 1.59164 11.733 2.0541 11.7093L2.14367 11.706L2.18638 11.7058L2.2984 11.7071L2.46686 11.7124C2.57844 11.7169 2.68849 11.7237 2.79659 11.7334C2.61767 11.7415 2.43264 11.7476 2.24413 11.7524L2.14803 11.7551L2.08243 11.7582L1.99983 11.7636C1.72659 11.7867 1.46234 11.8479 1.22204 11.9437C0.903206 12.0711 0.636043 12.2554 0.446648 12.4786C0.172844 12.8032 0.082662 13.1903 0.194503 13.5609C0.294175 13.8899 0.548717 14.1845 0.915634 14.3955C1.35977 14.6519 1.87082 14.7209 2.21341 14.7087C1.89904 14.7113 1.58817 14.6615 1.30542 14.5632C1.02266 14.465 0.775797 14.3211 0.58438 14.1428C0.244627 13.8302 0.133265 13.4462 0.177287 13.1364C0.221347 12.7917 0.440384 12.4704 0.793076 12.2332C1.14577 11.996 1.60773 11.8592 2.0918 11.8487C2.17788 11.8463 2.13953 11.8493 2.22169 11.8491L2.56711 11.8624C2.80596 11.8708 3.06442 11.878 3.35536 11.8828C3.93723 11.8926 4.64943 11.8934 5.59786 11.8764C5.64428 11.9019 5.00226 11.9516 5.73297 11.9523C7.42585 11.9326 6.17515 11.8423 6.70407 11.7829C5.40085 11.8161 4.79435 11.7836 4.03813 11.7161L4.38595 11.6728C4.43869 11.6954 5.25701 11.6965 5.49805 11.7183L5.70878 11.63C5.61159 11.7276 6.92091 11.8021 7.94997 11.7656C6.91001 11.6948 7.19093 11.6985 6.90805 11.5871C8.35511 11.4817 8.541 11.6907 10.1628 11.579C10.0412 11.6105 8.62534 11.6339 9.8488 11.6579C10.8617 11.6621 10.7266 11.586 11.4061 11.5617C10.641 11.6431 10.8375 11.7037 10.0083 11.8002C8.20866 11.8105 9.2824 11.7991 7.52327 11.8347L9.01238 11.9035C7.48753 11.9167 7.90356 11.9967 7.77803 12.0278C10.3819 12.1107 9.74027 11.9041 11.4157 11.9255C12.2234 11.8697 9.8464 11.9136 11.1097 11.8552C12.6762 11.8671 11.4669 11.8021 13.2254 11.7667L12.931 11.8041C13.4684 11.8526 13.9999 11.7929 14.6217 11.7846C15.3058 11.76 13.8472 11.5018 16.6598 11.4962C16.522 11.5189 16.4715 11.5332 16.4715 11.5427L13.728 12.2267C16.8726 12.2255 20.0172 12.2465 23.1613 12.2898C23.9384 12.4235 20.8059 12.4001 21.0079 12.4604L19.5027 12.433C19.587 12.3763 22.6561 12.4155 21.2969 12.3154C18.639 12.356 17.433 12.2909 14.9115 12.4077C15.6948 12.5417 18.2323 12.3839 19.8727 12.4875C19.184 12.4788 18.6026 12.4936 18.0382 12.5127L22.9791 12.5689L23.3729 12.5365C22.1919 12.5214 21.3749 12.5101 21.2694 12.5052C22.8352 12.5169 24.1561 12.4428 24.2601 12.3448L23.982 12.3414L24.5477 12.3108C24.9173 12.3158 25.2848 12.3221 25.65 12.3283ZM83.8286 7.91132C83.7519 7.86973 83.688 7.83967 83.6353 7.82144C83.6902 7.84029 83.654 7.80135 83.8286 7.91132ZM6.03197 13.8302L2.90054 13.8029L2.51175 13.7992L2.31758 13.7973L2.2206 13.7964C2.11817 13.7954 2.01707 13.7797 1.92327 13.7502C1.82946 13.7208 1.74486 13.6782 1.67447 13.625C1.55218 13.5331 1.47898 13.4134 1.46765 13.2869C1.45523 13.1605 1.50623 13.0351 1.61148 12.9331C1.39704 13.0982 1.35825 13.3674 1.50535 13.567C1.64744 13.7723 1.94492 13.8962 2.22779 13.9121C2.88136 13.9531 3.35035 13.9894 3.51728 14.0195C3.68422 14.0497 3.54888 14.0738 2.99425 14.0899L2.49759 14.1006L2.18355 14.104C2.0524 14.1028 1.92244 14.0861 1.7989 14.0547C1.50053 13.9774 1.25646 13.8196 1.11918 13.6151C1.03611 13.4901 0.996002 13.3528 1.00218 13.2146C1.00836 13.0763 1.06065 12.9411 1.1547 12.8202C1.1547 12.8202 1.20374 12.7489 1.27151 12.6853C1.3382 12.6213 1.42167 12.5671 1.42167 12.5671C1.21264 12.6844 1.06352 12.8477 0.997357 13.0317C0.91532 13.26 0.963118 13.5023 1.13029 13.7054C1.30464 13.9205 1.62696 14.0899 1.99657 14.1333C2.08483 14.145 2.18943 14.1477 2.26723 14.1463L2.50935 14.1447L2.99251 14.1402C3.51096 14.1059 4.60715 14.0257 5.56887 13.9512L6.82197 13.8504C7.14669 13.8224 7.34914 13.8025 7.33999 13.797C6.97256 13.7428 6.43711 13.8018 5.76937 13.7855L6.03197 13.8302ZM7.51695 14.1548C8.70074 14.1765 8.43116 14.1335 8.61488 14.0948L7.37094 14.1095C7.52828 14.1193 7.60586 14.133 7.51695 14.1548ZM8.54405 14.0564C8.41112 14.0554 8.29757 14.0536 8.23808 14.0484L8.54405 14.0564ZM15.4934 12.4802L15.3718 12.4825L16.2241 12.4915C16.1106 12.4855 15.8946 12.4806 15.4934 12.4802ZM13.0907 12.3854L12.8098 12.4562L13.6087 12.4643C13.519 12.4323 13.425 12.4045 13.0907 12.3854ZM5.3686 12.1529C4.88174 12.2378 3.25097 12.2417 3.15094 12.3397C3.04699 12.3649 3.39001 12.3744 3.77487 12.3825L5.14914 12.3907C5.16614 12.3764 5.26268 12.3632 5.42395 12.3504C4.94385 12.3381 4.62306 12.3138 4.81745 12.2535C6.05202 12.3848 5.92366 12.1601 7.25783 12.1937C7.68258 12.1245 5.77307 12.1252 5.3686 12.1529ZM78.8319 19.7041C78.7966 19.7171 78.6826 19.7675 78.5264 19.8407L79.1431 19.3311C80.3496 18.4989 81.4388 17.9196 82.3861 17.0713C82.9157 16.7357 83.2467 16.5901 83.5544 16.4449C83.3303 16.601 83.1034 16.7551 82.8738 16.9071C80.0573 19.1712 81.1289 17.8901 78.8319 19.7041ZM78.9361 13.9067C79.1091 13.9006 79.171 13.8844 79.171 13.8844C75.4248 14.0642 72.34 14.1165 70.3204 14.1095C70.712 14.1807 72.5237 14.2361 73.3843 14.2656L72.6218 14.3467L72.1458 14.2829L70.8223 14.3567C71.1921 14.4114 72.2613 14.4 72.9757 14.4421C73.0378 14.4265 75.3256 14.3316 75.965 14.2818L74.137 14.2255C74.6309 14.2483 77.0558 14.2294 78.0173 14.2089C78.0362 14.1681 76.3789 14.1053 76.1703 14.1936C75.9733 14.1333 77.8835 14.1327 76.6753 14.0679C78.1068 14.0034 80.3846 14.0573 81.4414 14.0871L81.6203 14.1886C82.7777 14.2282 82.4247 14.0663 83.6848 14.1251C82.8956 14.1349 82.963 14.1628 83.0502 14.1889C83.1402 14.2154 83.2517 14.24 82.6958 14.2441C83.0382 14.2824 82.6897 14.3514 83.7015 14.3439C84.2115 14.2766 84.4898 14.2977 84.699 14.3209C84.9226 14.3438 85.0813 14.369 85.6688 14.3096C85.8569 14.3285 85.6952 14.3469 85.5705 14.3631C85.4437 14.3793 85.3497 14.3928 85.6093 14.4028L85.4402 14.5157C85.1564 14.7684 85.0285 14.9027 85.0089 14.9647C84.9865 15.0282 85.0704 15.0207 85.1547 15.0299C85.477 14.812 85.6694 14.6598 85.7937 14.5464C85.919 14.4324 85.9798 14.355 86.0643 14.2682C85.7782 14.2878 85.5082 14.3011 85.1961 14.2928C85.535 14.2701 85.8736 14.2472 86.1354 14.2472C85.9673 14.4332 85.7922 14.6159 85.6102 14.7952C85.9645 14.5754 86.199 14.4112 86.3612 14.2857C86.0689 14.5084 85.8619 14.6914 85.6969 14.8578C85.604 14.9507 85.5086 15.0423 85.4108 15.1326C86.0421 14.6821 86.6281 14.2651 87.0561 13.9746C86.7491 13.9679 86.5479 13.9579 86.5067 13.9423L86.8535 13.8948C86.4405 13.8512 85.4369 13.8853 84.9906 13.9202C84.3155 13.9227 83.6331 13.9406 83.1064 13.95C82.5703 13.9596 82.2065 13.9606 82.0697 13.9299L82.5389 13.8864C81.018 13.9 80.8484 13.9061 78.9361 13.9067ZM29.1016 13.7986C30.0228 13.9724 31.0383 14.1263 35.337 14.0958L34.9988 14.1076C37.165 14.2168 39.2225 13.9634 41.8581 14.0846C40.5791 14.1503 40.648 14.1442 39.236 14.2942L40.6081 14.2452C40.2278 14.3399 41.5966 14.291 42.6034 14.2953L41.7147 14.4081C41.1104 14.3755 39.5437 14.364 39.5897 14.3896C39.9327 14.3771 37.5213 14.2475 36.2113 14.2802C36.3465 14.3564 39.1124 14.3257 37.8772 14.4503C38.9658 14.3981 39.1009 14.4741 40.2387 14.4473C39.1475 14.4997 39.9685 14.5514 39.1562 14.6069L41.0221 14.5808C41.0707 14.6064 38.3048 14.6374 39.8336 14.7312C40.5811 14.6913 42.5771 14.7414 42.6128 14.6594L42.6588 14.6846C44.0573 14.7022 43.274 14.5682 44.9911 14.6151C45.0114 14.5738 44.6838 14.5453 44.0688 14.5537C43.5488 14.572 43.4693 14.6285 42.3982 14.64C41.9181 14.5757 43.6898 14.6481 42.9465 14.5394C42.5771 14.4854 40.119 14.5861 40.9025 14.4642L42.2981 14.4818C42.3341 14.3994 43.3448 14.4042 43.3165 14.3378C44.1701 14.3075 44.9756 14.4002 45.8473 14.3285C46.2093 14.2754 45.5773 14.1765 47.0196 14.2195C48.1467 14.3411 51.4675 14.3174 52.7113 14.3002L53.7998 14.2478C53.7072 14.1973 51.7201 14.2545 52.419 14.1891L54.1165 14.1693L53.9855 14.2009C54.548 14.2079 55.1233 14.1738 55.6363 14.1559C55.1076 14.2151 53.8842 14.1913 54.1271 14.2769C54.9239 14.2936 55.0455 14.3257 55.7788 14.3092C55.6189 14.3153 55.4811 14.3235 55.5014 14.3357C57.1145 14.3727 57.0592 14.2399 57.4637 14.2118C59.0857 14.1005 55.829 14.1084 56.0362 14.0202L60.7716 13.973C60.3674 14.0011 59.96 14.0286 60.1128 14.0637C61.2742 14.1033 60.139 14.1304 61.7699 14.126C61.6538 14.0089 63.8235 14.0529 64.9755 13.9855C65.5138 14.0335 65.6245 14.043 64.4474 14.0445C64.5823 14.1205 66.1625 14.0914 66.7242 14.0981C67.0497 14.0793 67.6048 14.0684 67.9565 14.0512C67.4852 14.0135 67.6865 13.9657 68.7067 13.9335L68.7659 13.9173C67.0933 13.8966 64.4936 13.8135 63.445 13.8914L63.7413 13.8537C61.8053 13.788 59.5283 13.9903 58.6357 13.8467C58.7181 13.7899 58.2467 13.8336 58.2805 13.7515L56.855 13.8157L57.1511 13.7783L54.7265 13.7969L54.7905 13.7816C53.6381 13.8581 52.7352 13.9182 52.0139 13.9663C52.011 14.002 52.0862 14.0132 51.7018 14.0396C51.3894 14.0551 51.0762 14.0604 50.7632 14.0553C50.761 14.0556 50.761 14.0556 50.761 14.0559V14.0553C50.1663 14.045 49.7696 13.9936 49.0372 13.9726L51.2919 13.9637C51.4756 13.9028 51.2838 13.8395 50.1791 13.797C50.6309 13.7948 50.8198 13.7475 50.2609 13.7405C50.1994 13.7564 48.7835 13.7793 49.3229 13.8279C47.1811 13.8501 43.7134 13.6903 40.4614 13.8059C42.7978 13.7363 38.589 13.7244 41.1825 13.6993C39.3722 13.602 39.6248 13.7951 37.7794 13.78C37.622 13.745 38.784 13.7846 39.2081 13.7156C36.1396 13.6766 34.031 13.8729 31.0625 13.8433L30.9355 13.7673L29.1016 13.7986ZM23.2295 13.8933C22.6583 13.9019 22.0788 13.9104 21.49 13.9195L21.6608 13.9216L19.9444 13.9828C20.9992 14.0124 21.6939 14.0961 20.2179 14.1349C20.3421 14.1034 19.9106 14.0651 20.4238 14.0467C19.4347 14.0012 17.2643 13.9571 17.8303 14.0718C19.7313 13.9634 18.2733 14.2179 19.767 14.1374C18.9655 14.212 18.1713 14.1785 17.4145 14.2118C18.2025 14.1495 17.2307 14.0702 16.0472 14.0403C15.532 14.0587 14.1374 14.0411 13.2814 14.0715C13.5865 14.1414 12.841 14.1816 14.2362 14.1992C13.5062 14.2258 12.7747 14.2247 12.0449 14.1961C12.3968 14.1843 13.0121 14.1754 12.9693 14.1501C12.3968 14.0857 11.726 14.0885 11.3562 14.0609L10.4736 14.0721C10.5599 14.0783 10.6349 14.0863 10.6883 14.0962L9.7078 14.1579C11.0136 14.1251 10.3115 14.1905 10.2945 14.2316C10.3296 14.1495 9.45391 14.221 9.00672 14.2237L9.97781 14.3104C9.50861 14.3539 8.32067 14.2478 8.56585 14.3335C10.6262 14.3679 11.4181 14.3533 13.2812 14.3274L12.5248 14.2598C14.6269 14.2121 13.8212 14.3754 16.1799 14.3723C17.1603 14.3106 19.7271 14.3681 19.7757 14.2447C19.48 14.2824 21.2446 14.3545 22.0527 14.2986C22.9462 14.186 25.6478 14.1709 24.8293 14.1195C24.0995 14.1179 23.117 14.1801 22.5301 14.1067L23.9462 14.0832L23.017 14.0218C23.4969 14.0436 23.4502 13.9836 23.2295 13.8933ZM9.48159 13.2858L9.53629 13.2873L9.47548 13.287L9.48159 13.2858Z" fill="black" fill-opacity="0.21"/>
<path d="M77.8691 22.3934C78.1293 22.1679 78.8456 21.6622 78.6467 21.7191C78.7297 21.7538 77.3849 22.6355 77.8691 22.3934ZM78.7851 21.8308C78.8193 21.7837 78.7596 21.7907 79.0766 21.5608L78.2136 22.2014L78.7851 21.8308ZM80.126 21.5138C80.5307 21.1544 80.7907 20.9293 81.507 20.4236C81.9346 20.3471 80.386 21.2887 80.2129 21.6263C81.5329 20.7043 81.7936 20.318 82.8534 19.541C82.2545 19.8732 80.0434 21.3987 80.126 21.5138ZM79.7487 22.0725L80.4383 21.528L80.3574 21.5725L79.6672 22.1175L79.7487 22.0725ZM79.4938 20.5594C79.6093 20.5485 80.0122 20.1901 80.2428 20.008C80.0421 20.1466 79.7529 20.3345 79.4938 20.5594ZM75.6593 3.11291L72.8672 1.15178L72.6057 0.968134L72.4756 0.876854L72.4108 0.831371L72.2827 0.911746C72.2522 0.927167 72.2798 0.914239 72.2829 0.916576C72.2881 0.917822 72.2648 0.913462 72.27 0.914396C72.27 0.915175 72.2768 0.915953 72.2785 0.920626C72.2781 0.927168 72.2535 0.94664 72.287 0.927792L72.3027 0.919846L72.3106 0.915953L72.3125 0.915019C72.3328 0.903492 72.2875 0.929504 72.2916 0.926856L72.291 0.926544L72.2862 0.922806C72.2733 0.912836 72.2724 0.910502 72.2722 0.910035C72.2745 0.913794 72.276 0.917787 72.2766 0.921871C72.2764 0.92265 72.2772 0.917042 72.279 0.913771C72.2836 0.906606 72.2772 0.914862 72.277 0.914551C72.2855 0.900999 72.2724 0.93075 72.2764 0.920158C72.2764 0.917042 72.272 0.909412 72.2724 0.910346C72.2729 0.910813 72.2751 0.913617 72.282 0.91938C72.284 0.919225 72.2921 0.931374 72.2942 0.924365C72.245 0.953649 72.2886 0.915953 72.2781 0.918601C72.252 0.908476 72.2955 0.92016 72.2816 0.916733C72.2775 0.916733 72.2659 0.920002 72.269 0.919224C72.2707 0.918445 72.2761 0.916109 72.2866 0.909255L72.2912 0.906296L72.2931 0.904894L72.2936 0.904582C72.5069 0.752708 72.3533 0.862992 72.4015 0.829346L72.4028 0.83028L72.4078 0.833862L72.4487 0.862681L72.5311 0.920783C73.4155 1.54027 74.4108 2.23796 75.6593 3.11291ZM72.6122 13.4707C74.7143 13.423 75.6482 13.336 77.7902 13.3137C74.9737 13.2118 74.0701 13.4729 71.7054 13.3685L72.6122 13.4707ZM73.3538 13.0671C73.7023 13.1624 71.732 13.1788 72.0371 13.2487C73.4536 13.2255 72.6968 13.1579 73.9825 13.1662L73.3538 13.0671ZM82.7335 14.6426L82.5609 14.6672L82.2423 14.6921L82.4988 14.6829L82.5855 14.6796L82.6259 14.6767L82.6653 14.6737L82.7335 14.6426ZM63.7732 13.1517L64.0053 13.1302L62.9511 13.1L63.7732 13.1517ZM82.0605 14.8471L82.5343 14.857L82.5786 14.8581L82.5938 14.8591L82.6232 14.8609C82.6568 14.8633 82.6903 14.8654 82.7239 14.8675C82.7193 14.8675 82.9089 14.8237 82.9135 14.8237L82.6476 14.8352L82.5995 14.8376L82.5086 14.8398L82.2817 14.8433L82.0605 14.8471ZM73.6988 14.3357L74.5463 14.3053C74.3781 14.3109 73.2187 14.2717 73.6988 14.3357ZM57.3357 13.1112L56.3045 13.1478L56.41 13.1573L57.4377 13.1207L57.3357 13.1112ZM67.065 14.5985C67.6506 14.6717 65.3741 14.6182 66.5788 14.683C67.6506 14.6717 67.2156 14.6335 67.065 14.5985ZM54.6232 14.1017C54.4839 14.1017 54.3375 14.1042 54.1965 14.1123L54.6232 14.1017ZM54.6232 14.1017C55.0723 14.1017 55.5213 14.1298 55.8292 14.1084C55.2693 14.0752 55.0656 14.0877 54.6232 14.1017ZM49.4785 14.1187L49.8856 14.1238C49.4696 14.16 49.6668 14.1545 50.0381 14.1257C50.4694 14.1231 50.4452 14.0999 50.4967 14.084L50.7621 14.0556L50.4084 14.0821C49.7398 14.0816 49.3318 14.0851 49.4785 14.1187ZM30.3665 12.8841C31.8702 12.9113 32.2592 12.9246 32.1775 12.9814C33.6049 12.9995 33.3835 12.9017 34.2445 12.8789C32.6292 12.8898 32.2991 12.8637 30.3665 12.8841ZM34.2445 12.8788L34.8083 12.8743C34.6204 12.8726 34.4324 12.8741 34.2445 12.8788ZM55.4916 14.7404L54.5571 14.8274L54.9002 14.8155L55.4916 14.7404ZM28.1347 12.8554C28.4136 12.859 28.8606 12.8565 29.08 12.876C29.1605 12.819 27.8566 12.852 28.1347 12.8554ZM33.9344 13.9706C34.087 14.0053 35.0494 13.9846 35.441 13.998C34.8792 13.9907 34.4215 13.8857 33.9344 13.9706ZM23.8205 13.09C24.0995 13.0936 24.5281 13.1319 24.3425 13.179C24.7476 13.1512 25.2959 13.0508 23.8205 13.09ZM31.1861 13.9601L31.401 13.9796L32.4301 13.9431L31.1861 13.9601ZM34.8569 14.8002C36.0143 14.7323 33.0209 14.6365 35.0143 14.579C32.4429 14.5078 35.2115 14.6751 33.3146 14.664C34.4254 14.6869 34.9696 14.7728 34.8569 14.8002ZM33.3146 14.664C33.1393 14.6604 32.9639 14.6584 32.7885 14.6581L33.3146 14.664ZM17.0252 14.2346C17.1551 14.2291 17.2849 14.2215 17.4142 14.2115C17.2817 14.2173 17.1556 14.2243 17.0252 14.2346ZM27.2568 14.7201L28.9916 14.6183C27.8328 14.6862 24.9178 14.6818 25.0993 14.7834C26.0434 14.8039 27.179 14.7771 27.6458 14.7334L27.2568 14.7201ZM7.34479 12.8803L8.09425 12.8402L7.15846 12.8283C7.4263 12.8436 6.94141 12.918 7.34479 12.8803Z" fill="black" fill-opacity="0.21"/>
<path d="M6.97736 12.8263L7.15846 12.8285C7.09819 12.8254 7.03773 12.8247 6.97736 12.8263ZM20.3064 14.1854C20.8669 14.1927 21.3152 14.1899 21.8264 14.1717C21.6144 14.1525 20.2179 14.1346 20.3064 14.1854ZM2.21733 13.2436L2.21799 13.2391L2.21864 13.2318V13.0258H2.22823L2.23847 13.0257L2.25983 13.0254L2.68523 13.0193L3.30371 13.0106L2.62878 13.0143C2.50819 13.0149 2.38761 13.0156 2.26702 13.0163L2.24021 13.0165H2.21907L2.21886 13.2266V13.2269L2.21864 13.2341C2.21733 13.2489 2.21602 13.2478 2.21624 13.2486L2.21733 13.2436ZM4.72026 13.6319L4.93361 13.6511L5.95941 13.6148L5.74257 13.5958L4.72026 13.6319ZM3.84418 14.8519C4.68277 14.8625 5.33787 14.7715 5.11841 14.7522L3.49244 14.7563C3.90563 14.836 3.94355 14.7538 4.88632 14.7739L3.84418 14.8519ZM47.567 13.4828C47.2037 13.5361 45.425 13.5054 45.3319 13.4547C45.571 13.4325 46.5353 13.4117 45.9295 13.3794L44.5221 13.5103C42.6503 13.4288 45.945 13.3383 46.8694 13.2922C44.9625 13.2754 44.3972 13.3614 42.3687 13.3609C42.9672 13.3724 43.3451 13.4051 43.6613 13.4333C43.7301 13.5252 41.8403 13.4844 40.4889 13.4917C41.349 13.5319 40.8515 13.5656 40.225 13.6015C40.1121 13.6047 40.0371 13.6098 39.9839 13.6159L39.7712 13.629L39.9334 13.6286C39.9218 13.6389 39.9578 13.6514 40.0744 13.6685C41.2083 13.6417 42.0752 13.7187 42.8053 13.7199C42.0841 13.5702 45.291 13.6852 46.2087 13.6392L47.268 13.6243L47.6644 13.624C47.744 13.6403 47.6313 13.661 47.0268 13.6906C47.5313 13.6612 49.2133 13.6715 49.0579 13.6234L52.8967 13.6212C53.0064 13.6258 53.1157 13.634 53.2243 13.6458C53.3572 13.6363 53.3796 13.6285 53.3622 13.6209L70.0877 13.6114C69.2626 13.5995 68.5487 13.5654 67.6979 13.5487C68.9747 13.4494 66.3029 13.5308 66.6775 13.4367C67.2515 13.4026 68.0914 13.4134 68.5918 13.4363C68.7781 13.3888 68.0651 13.3467 68.1475 13.29C66.0379 13.2303 65.7154 13.4575 63.6531 13.423C63.7346 13.3662 64.3723 13.3163 63.0222 13.324L63.3652 13.3117C61.2036 13.3754 61.681 13.183 60.3203 13.3389L60.356 13.2568C59.3756 13.3187 57.468 13.3191 56.393 13.3304L56.457 13.3146C53.4413 13.4085 54.7642 13.3346 51.3777 13.3738L52.9362 13.278C51.7681 13.2384 51.5046 13.3427 50.6658 13.3318C50.7259 13.316 50.5315 13.2559 51.3237 13.2409L47.2148 13.3871C46.2348 13.4495 47.4145 13.4478 47.567 13.4828ZM42.3687 13.3609C42.1167 13.3558 41.8646 13.3547 41.6125 13.3578L42.3687 13.3609ZM71.2628 13.6106L70.0877 13.6115C70.4516 13.6163 70.831 13.6179 71.2628 13.6106ZM36.4792 13.54C37.1916 13.5825 35.9457 13.5995 35.8215 13.631L38.3732 13.6294C38.3617 13.5978 38.6142 13.5624 38.563 13.5336L36.4792 13.54ZM39.1122 13.6891C39.1985 13.6671 39.4687 13.6473 39.7712 13.6288L38.3734 13.6294C38.3821 13.6533 38.5388 13.6748 39.1122 13.6891ZM38.842 12.0006L39.2937 11.9978L39.9772 11.9733L38.842 12.0006ZM45.9073 12.1397C45.3677 12.0917 44.3441 12.1281 44.0017 12.1403C45.1813 12.1387 44.6703 12.1571 45.9073 12.1397ZM44.4493 11.6256L45.5865 11.5985L45.4806 11.589L44.4493 11.6256ZM79.9475 13.2875L80.5032 13.2822C80.3179 13.2814 80.1327 13.2832 79.9475 13.2875Z" fill="black" fill-opacity="0.21"/>
<path d="M70.1897 13.3657C72.9022 13.4579 68.4124 13.4423 69.2646 13.5604L70.7406 13.5215L70.6151 13.5531L72.4154 13.5428C72.0462 13.4884 71.7684 13.4852 71.8488 13.4282C74.2519 13.4504 72.6065 13.4958 74.3693 13.5676L77.0556 13.5573L76.8383 13.5743C77.0645 13.573 77.1643 13.566 77.2421 13.5567L89.3677 13.5213C90.8032 13.4986 90.283 13.473 89.6933 13.4427C89.0929 13.4123 88.4398 13.3769 89.3368 13.3352L84.0988 13.3193L82.968 13.3218L82.5164 13.3258L82.2575 13.3322C81.9389 13.3425 81.7312 13.3601 81.6907 13.3884C81.7548 13.3726 81.8812 13.3412 81.4944 13.3279L80.3903 13.4213L81.4431 13.4511C80.3328 13.5442 76.7478 13.5235 76.0995 13.4657C78.138 13.4341 77.1153 13.3218 79.9553 13.3828C79.8276 13.354 79.3076 13.3034 79.9473 13.2877C76.6197 13.3204 73.6369 13.2687 70.1897 13.3657ZM75.9376 3.43751L75.9663 3.44359C75.9184 3.41711 75.9005 3.4101 75.9376 3.43751ZM76.7134 4.01198L77.9704 4.75297L76.1736 3.48113L75.9666 3.44343C76.144 3.54234 76.8102 3.9626 77.0231 4.15778L76.7134 4.01198ZM79.3687 5.65736C78.4122 5.02074 78.3716 5.12167 78.8339 5.51125C77.9436 4.93538 78.4843 5.12168 77.8041 4.77291C77.7575 4.83351 78.8415 5.553 79.0936 5.71609L79.3687 5.65736ZM87.1442 11.2834L86.6188 10.9617L87.6979 11.7474L87.1442 11.2834ZM86.6188 10.9617L85.5378 10.1746C85.576 10.2419 85.6121 10.3067 85.7568 10.4374L86.6188 10.9617ZM83.5717 8.73207C83.2701 8.50549 82.9655 8.28092 82.6581 8.05837L83.5717 8.73207ZM84.2749 9.26776L84.2653 9.24392L83.5717 8.73207C83.8234 8.92351 84.0489 9.09548 84.2749 9.26776ZM85.5378 10.1748C85.4914 10.0961 85.436 10.0098 85.1776 9.79301C85.1009 9.72892 85.0226 9.66588 84.9427 9.6039L84.733 9.43988C84.5544 9.30484 84.371 9.17312 84.183 9.04485L84.2655 9.24392L85.5378 10.1748ZM52.72 11.7227L53.7471 11.6862L53.6383 11.6762L52.6119 11.7127L52.72 11.7227ZM58.6461 11.7814C58.8535 11.7722 59.0607 11.7604 59.2675 11.746C58.9998 11.753 58.7874 11.7638 58.6461 11.7814ZM63.0516 11.3417C64.2596 11.4065 61.3851 11.4273 63.6221 11.456C63.8191 11.5163 62.7707 11.594 61.7172 11.5639C61.8009 11.5072 62.7437 11.5276 62.096 11.4697C61.3964 11.5353 61.1303 11.4906 61.374 11.5761C60.1971 11.6294 60.066 11.6901 59.2672 11.7459C60.6899 11.7082 63.6773 11.796 65.4828 11.6862C66.4781 11.5834 65.8744 11.4431 65.8784 11.2946C65.7289 11.2599 63.1488 11.2434 63.0516 11.3417ZM61.1508 11.1935C60.5918 11.1862 60.4207 11.1921 60.0777 11.2044C60.1703 11.2554 60.6988 11.1959 61.1508 11.1935ZM73.9997 12.3115C74.1063 12.2903 75.1179 12.2641 74.9004 12.2277L73.3671 12.2543C73.7269 12.2579 73.8537 12.2836 73.9997 12.3115ZM72.6943 12.2657L73.3669 12.2543C73.1426 12.253 72.9183 12.2568 72.6943 12.2657ZM74.0725 12.3245L73.9997 12.3115C73.978 12.3158 73.9821 12.3205 74.0725 12.3245ZM80.977 6.825C81.0326 6.80709 80.5254 6.47888 80.2709 6.31408C80.4646 6.45754 80.7283 6.66487 80.977 6.825ZM79.5053 6.16626L79.9002 6.49415C79.7683 6.37265 79.7006 6.31065 79.5053 6.16626ZM87.1849 10.0813C87.2052 10.0846 87.2436 10.1024 87.2919 10.1284C87.2446 10.1017 87.2083 10.0854 87.1849 10.0813ZM87.2922 10.1285C87.6173 10.3131 88.4659 10.9941 88.8406 11.189L88.7839 11.1708L89.4168 11.5798C88.8473 11.1792 87.6681 10.3274 87.2922 10.1285Z" fill="black" fill-opacity="0.21"/>
</svg>
