<svg width="22" height="30" viewBox="0 0 22 30" fill="none" xmlns="http://www.w3.org/2000/svg">
<path d="M19 11.466V8C19 5.87827 18.1571 3.84344 16.6569 2.34315C15.1566 0.842855 13.1217 0 11 0C8.87827 0 6.84344 0.842855 5.34315 2.34315C3.84285 3.84344 3 5.87827 3 8V11.467C1.0729 13.5016 -0.000782525 16.1976 4.27908e-07 19C4.27908e-07 25.074 4.926 30 11 30C17.076 30 22 25.074 22 19C22 16.081 20.855 13.436 19 11.466ZM5 8C5 4.691 7.691 2 11 2C14.309 2 17 4.691 17 8V9.788C15.2169 8.62023 13.1315 7.99877 11 8C8.86852 7.99877 6.78311 8.62023 5 9.788V8ZM11 28C6.029 28 2 23.971 2 19C2 14.029 6.029 10 11 10C15.971 10 20 14.029 20 19C20 23.971 15.971 28 11 28Z" fill="#F4F3F3"/>
</svg>
